<?xml version="1.0" standalone="no"?>
<!DOCTYPE svg PUBLIC "-//W3C//DTD SVG 20010904//EN"
 "http://www.w3.org/TR/2001/REC-SVG-20010904/DTD/svg10.dtd">
<svg version="1.0" xmlns="http://www.w3.org/2000/svg"
 width="1024.000000pt" height="1024.000000pt" viewBox="0 0 1024.000000 1024.000000"
 preserveAspectRatio="xMidYMid meet">

<g transform="translate(0.000000,1024.000000) scale(0.100000,-0.100000)"
fill="#000000" stroke="none">
<path d="M3061 8928 c-47 -13 -87 -42 -215 -155 -61 -54 -232 -206 -381 -338
-148 -132 -291 -258 -316 -280 -144 -126 -595 -530 -657 -589 -84 -80 -118
-132 -131 -202 -11 -55 -7 -66 13 -39 8 11 25 18 44 17 24 0 32 5 43 29 6 17
30 49 53 72 37 38 597 538 1011 902 87 77 238 210 335 296 97 86 191 164 208
173 65 34 129 12 195 -68 23 -28 90 -106 149 -172 134 -152 158 -187 158 -231
0 -42 -19 -80 -75 -148 -85 -105 -71 -163 85 -344 59 -69 558 -668 669 -804
117 -143 156 -149 401 -69 447 147 870 191 1299 136 720 -93 1346 -438 1811
-999 289 -347 490 -762 589 -1212 110 -502 100 -972 -31 -1437 -141 -501 -392
-916 -784 -1296 -148 -144 -252 -227 -422 -341 -361 -240 -774 -394 -1222
-455 -154 -21 -535 -24 -695 -6 -856 100 -1615 582 -2110 1341 -535 820 -588
1909 -136 2808 32 65 87 161 121 213 35 52 69 110 77 129 33 78 -15 161 -219
377 -380 403 -645 677 -675 695 -60 37 -100 31 -184 -29 -112 -80 -149 -95
-201 -81 -47 12 -96 60 -253 243 -49 57 -92 105 -95 105 -3 1 -5 -32 -5 -73
l0 -74 66 -78 c114 -135 188 -200 249 -218 84 -25 143 -10 243 61 69 49 92 56
130 39 33 -14 680 -681 800 -825 51 -62 51 -105 -3 -192 -211 -341 -321 -618
-399 -1014 -73 -370 -73 -785 0 -1150 156 -778 607 -1446 1284 -1901 390 -262
763 -404 1235 -471 175 -24 615 -24 785 0 672 97 1224 362 1693 812 534 512
847 1157 913 1885 22 248 3 609 -46 870 -173 914 -764 1700 -1580 2100 -698
343 -1479 392 -2268 141 -185 -59 -184 -59 -287 47 -47 48 -132 144 -189 212
-58 69 -139 166 -181 215 -177 209 -341 407 -370 446 -43 60 -40 93 17 170 80
109 88 194 29 287 -35 56 -333 398 -372 428 -64 49 -131 63 -203 42z"/>
<path d="M7992 5295 c0 -5 6 -26 13 -45 7 -19 14 -28 14 -20 0 8 -6 29 -14 45
-7 17 -13 26 -13 20z"/>
<path d="M8030 5185 c0 -5 5 -17 10 -25 5 -8 10 -10 10 -5 0 6 -5 17 -10 25
-5 8 -10 11 -10 5z"/>
<path d="M8121 4840 c0 -8 4 -22 9 -30 12 -18 12 -2 0 25 -6 13 -9 15 -9 5z"/>
<path d="M7973 4635 c-23 -7 -62 -24 -85 -38 -52 -30 -134 -105 -125 -113 3
-4 17 7 31 22 21 24 25 26 26 11 0 -10 5 -15 10 -12 8 5 7 11 -1 21 -8 10 -8
14 0 14 6 0 11 -5 11 -11 0 -5 4 -8 8 -5 4 2 8 -4 8 -14 0 -11 -5 -16 -15 -12
-9 3 -12 1 -7 -6 4 -7 2 -10 -7 -6 -8 3 -14 -2 -14 -11 0 -9 6 -14 14 -11 11
5 13 -3 11 -32 -3 -34 -5 -37 -33 -36 l-30 1 7 -111 c4 -61 15 -136 24 -166 8
-30 17 -64 17 -74 2 -19 -3 -21 -163 -71 -148 -46 -253 -122 -362 -265 -56
-74 -122 -204 -137 -272 -16 -71 -5 -105 56 -165 55 -54 62 -57 146 -68 81
-11 109 -63 60 -117 -16 -17 -141 -83 -147 -77 -2 2 -22 32 -45 66 -46 69
-105 119 -190 160 -49 24 -68 28 -148 28 -63 0 -96 -4 -105 -13 -11 -11 -8
-11 15 -3 53 20 147 13 217 -18 36 -15 64 -33 62 -39 -2 -11 11 -16 31 -13 16
3 18 -29 3 -44 -8 -9 -18 -16 -21 -15 -25 1 -35 -2 -35 -11 0 -5 4 -8 9 -5 18
11 -5 -54 -23 -66 -7 -5 -7 -8 2 -8 7 0 10 -5 6 -11 -3 -6 8 -4 24 5 17 9 34
16 37 16 14 0 -25 -31 -52 -41 -26 -10 -27 -12 -8 -19 11 -5 15 -9 9 -9 -17
-1 -36 -49 -21 -55 9 -3 8 -7 -2 -14 -8 -6 -11 -17 -8 -26 7 -19 -9 -22 -17
-3 -6 16 -46 -29 -46 -52 1 -10 6 -6 16 12 8 16 20 27 26 25 19 -7 32 -34 24
-53 -5 -14 -13 -16 -39 -11 -20 3 -26 2 -17 -3 8 -5 32 -11 53 -15 27 -5 37
-12 37 -26 0 -10 -8 -21 -17 -23 -14 -4 -13 -5 4 -6 12 0 24 5 26 12 3 7 6 5
6 -5 1 -10 -4 -18 -11 -18 -6 0 -4 -6 6 -13 16 -12 16 -14 2 -26 -12 -10 -13
-17 -4 -37 13 -29 -2 -46 -31 -37 -11 3 -12 2 -4 -4 6 -4 9 -20 6 -36 -5 -26
-6 -26 -20 -10 -13 17 -13 16 -4 -4 8 -16 8 -23 -2 -26 -6 -2 -2 -3 9 -1 12 2
27 -3 33 -10 10 -12 8 -13 -8 -9 -12 3 -21 1 -21 -6 0 -6 -3 -10 -7 -10 -26 4
-53 -2 -48 -11 4 -6 11 -8 16 -5 12 8 11 -2 -1 -26 -12 -22 -5 -25 14 -6 7 7
11 18 8 25 -5 17 6 15 29 -7 15 -14 17 -21 8 -26 -8 -5 -10 -4 -5 3 4 7 1 12
-8 12 -8 0 -18 -5 -22 -12 -4 -6 -3 -8 3 -5 6 4 13 -2 16 -13 3 -11 0 -23 -5
-27 -7 -3 -8 -1 -4 5 5 8 -1 12 -15 12 -19 0 -20 -2 -8 -17 8 -10 19 -22 24
-26 6 -5 2 -6 -9 -3 -16 6 -17 4 -6 -9 14 -17 8 -31 -10 -20 -7 4 -9 18 -5 32
4 16 2 22 -5 18 -6 -3 -10 3 -10 14 0 12 -5 21 -11 21 -6 0 -8 -7 -5 -15 3 -8
9 -22 12 -30 3 -8 1 -15 -5 -15 -6 0 -8 -7 -5 -15 4 -8 10 -12 15 -9 5 3 9 0
9 -5 0 -6 7 -11 15 -11 8 0 15 -4 15 -10 0 -5 -7 -10 -16 -10 -8 0 -12 -5 -8
-11 3 -6 15 -9 25 -6 11 3 17 1 13 -4 -3 -5 -11 -9 -19 -9 -7 0 -15 -3 -18 -7
-2 -5 -2 -1 0 7 3 12 1 12 -8 3 -9 -9 -9 -19 0 -44 23 -67 8 -139 -29 -139
-44 0 -53 78 -15 130 30 40 30 44 8 32 -22 -11 -46 -4 -37 10 5 7 2 8 -6 3
-10 -6 -10 -10 2 -19 8 -6 13 -17 10 -24 -3 -10 -7 -10 -20 0 -14 12 -14 11
-2 -9 12 -18 12 -24 0 -38 -7 -9 -19 -14 -26 -11 -7 3 -16 0 -20 -6 -4 -7 -3
-8 5 -4 6 4 14 0 17 -8 3 -9 13 -16 21 -16 10 0 12 -6 8 -21 -5 -13 -3 -19 3
-15 5 3 13 -2 16 -11 4 -10 4 -14 0 -10 -9 8 -40 -34 -36 -48 2 -5 -2 -5 -8 1
-9 9 -8 18 3 35 13 22 13 27 -5 54 -11 17 -18 22 -14 13 3 -10 1 -18 -4 -18
-6 0 -10 -8 -9 -17 0 -11 3 -13 6 -5 7 18 24 14 21 -6 -2 -9 -11 -22 -22 -28
-17 -10 -17 -12 9 -32 15 -12 23 -22 17 -22 -6 0 -14 5 -17 11 -4 6 -14 7 -24
4 -9 -4 -22 -8 -30 -9 -8 -2 -18 -13 -23 -26 -8 -21 -7 -22 9 -9 10 8 21 19
25 24 5 6 8 5 8 -3 0 -16 -24 -42 -40 -42 -6 0 -9 -4 -6 -9 3 -5 -12 -11 -34
-13 -22 -2 -40 -1 -40 3 0 4 -8 6 -17 5 -11 0 -17 5 -15 14 2 8 0 11 -4 7 -10
-10 -14 -37 -6 -36 20 3 25 -3 12 -12 -13 -9 -13 -10 2 -6 21 7 55 -28 37 -39
-8 -5 -10 -3 -4 6 5 8 3 11 -6 8 -8 -3 -13 -10 -12 -15 1 -5 -5 -10 -13 -10
-7 0 -14 5 -14 10 0 6 -11 -2 -24 -16 -13 -14 -27 -23 -31 -19 -4 4 -5 0 -3
-8 1 -8 8 -19 13 -23 6 -5 3 -7 -7 -3 -10 3 -24 -1 -31 -9 -8 -7 -29 -15 -48
-17 -19 -2 -33 -8 -32 -14 2 -12 -26 -12 -44 -1 -7 5 -21 -1 -32 -12 -11 -11
-22 -17 -25 -14 -3 4 -6 1 -6 -5 0 -21 21 -24 27 -4 3 11 11 23 19 26 21 8 17
-12 -6 -31 -22 -19 -50 -26 -50 -11 0 5 -13 0 -30 -12 -25 -18 -29 -19 -23 -4
5 14 3 16 -13 9 -10 -4 -28 -7 -39 -7 -18 1 -18 0 -3 -9 11 -6 15 -16 11 -26
-4 -10 -2 -14 5 -9 6 3 13 3 16 -2 5 -8 -83 -36 -91 -28 -2 2 9 7 26 11 35 7
38 16 15 35 -12 11 -18 10 -32 -5 -12 -13 -12 -15 -2 -8 11 8 20 9 30 1 13 -8
12 -9 -1 -5 -9 3 -22 0 -28 -6 -9 -9 -14 -8 -21 3 -7 12 -11 10 -19 -10 -5
-14 -10 -19 -10 -12 -1 7 -5 10 -11 7 -5 -3 -10 1 -10 9 0 22 -17 20 -22 -2
-5 -18 -58 -30 -58 -12 0 6 -5 10 -11 10 -5 0 -7 -5 -4 -10 4 -6 -19 -10 -62
-11 -37 -1 -59 -4 -49 -6 15 -4 16 -7 5 -13 -7 -5 -22 -4 -33 2 -12 6 -18 7
-14 3 4 -5 3 -15 -4 -22 -9 -11 -9 -17 3 -24 10 -7 -2 -9 -39 -6 -30 2 -48 1
-41 -3 22 -14 -155 -22 -381 -16 -294 7 -467 31 -700 97 -186 53 -498 188
-485 209 4 6 -1 7 -11 3 -12 -4 -15 -3 -10 5 4 8 2 10 -8 6 -13 -5 -44 10
-143 68 -18 11 -33 17 -33 14 0 -3 37 -27 83 -54 339 -199 674 -309 1067 -353
142 -16 513 -16 630 0 346 45 691 151 956 292 791 422 1319 1163 1456 2044 18
119 22 179 21 395 -1 140 -5 280 -10 310 l-8 55 -65 22 c-74 25 -163 29 -227
8z m64 -11 c-3 -3 -12 -4 -19 -1 -8 3 -5 6 6 6 11 1 17 -2 13 -5z m139 -5 c25
-6 42 -14 39 -17 -3 -3 2 -13 10 -22 13 -14 11 -16 -21 -18 -31 -2 -36 1 -49
30 -8 18 -15 26 -15 18 -1 -10 -3 -11 -7 -2 -2 6 -9 10 -13 7 -5 -3 -11 -1
-15 5 -8 13 15 13 71 -1z m-179 -5 c-3 -3 -12 -4 -19 -1 -8 3 -5 6 6 6 11 1
17 -2 13 -5z m-14 -29 c19 5 20 5 4 -5 -21 -13 -37 -5 -36 18 1 15 2 15 6 -1
3 -13 11 -16 26 -12z m157 -11 c0 -8 -4 -14 -10 -14 -5 0 -9 6 -7 13 1 6 -4
11 -11 9 -8 -1 -11 2 -7 7 8 14 35 2 35 -15z m-259 -87 c-10 -9 -11 -8 -5 6 3
10 9 15 12 12 3 -3 0 -11 -7 -18z m-7 -29 c-3 -4 0 -8 5 -8 6 0 11 -7 11 -15
0 -9 6 -12 18 -9 16 5 16 4 -1 -9 -14 -11 -15 -16 -5 -20 9 -4 9 -6 1 -6 -6
-1 -14 3 -18 9 -3 5 -11 7 -18 4 -8 -3 -12 7 -12 29 0 20 4 34 12 34 7 0 10
-4 7 -9z m-34 -88 c0 -5 -6 -10 -12 -10 -9 0 -8 -4 2 -10 8 -5 11 -10 5 -10
-5 0 -3 -5 5 -10 13 -8 12 -10 -3 -10 -12 0 -16 -4 -11 -12 6 -10 5 -10 -8 -1
-8 7 -18 10 -21 6 -4 -3 -7 7 -7 24 0 16 3 33 7 36 10 11 43 8 43 -3z m50 -24
c0 -2 -8 -10 -17 -17 -16 -13 -17 -12 -4 4 13 16 21 21 21 13z m-70 -66 c0 -5
-8 -10 -17 -10 -15 0 -16 2 -3 10 19 12 20 12 20 0z m15 -30 c3 -5 1 -10 -4
-10 -6 0 -11 5 -11 10 0 6 2 10 4 10 3 0 8 -4 11 -10z m136 -310 c35 -19 18
-100 -21 -100 -38 0 -56 80 -22 99 21 13 20 13 43 1z m-451 -45 c0 -2 -14 -12
-30 -20 -17 -9 -28 -20 -25 -25 4 -6 4 -10 1 -10 -3 0 -8 4 -11 10 -3 5 9 19
27 30 36 21 38 22 38 15z m-84 -101 c18 -15 18 -15 -2 -5 -12 6 -24 7 -28 4
-3 -3 -6 -1 -6 5 0 16 12 15 36 -4z m-58 -24 c-7 -11 -16 -20 -20 -20 -4 0 -4
-7 -1 -17 4 -10 2 -14 -4 -10 -6 4 -13 0 -16 -8 -4 -9 -1 -12 7 -9 7 3 13 -2
13 -11 0 -20 -23 -19 -31 1 -6 16 0 29 38 72 24 27 30 28 14 2z m428 -125 c19
-30 9 -71 -23 -92 -19 -13 -24 -12 -42 6 -25 25 -27 68 -4 93 22 25 50 23 69
-7z m-520 -5 c0 -11 -6 -20 -13 -20 -6 0 -15 -4 -18 -10 -3 -6 1 -7 9 -4 19 7
20 0 4 -26 -11 -16 -9 -22 7 -35 19 -14 19 -15 1 -8 -13 4 -17 3 -13 -4 4 -7
0 -10 -10 -8 -10 2 -23 4 -30 4 -17 1 -4 31 13 31 8 0 14 5 14 11 0 5 -4 7
-10 4 -12 -7 2 32 22 64 16 26 24 27 24 1z m-55 -131 c11 -5 17 -15 13 -20 -4
-7 1 -7 15 0 14 8 21 8 21 1 0 -5 -4 -10 -10 -10 -5 0 -7 -7 -4 -15 4 -9 -1
-18 -11 -21 -13 -5 -14 -9 -4 -15 8 -5 17 -3 21 4 5 7 7 0 7 -18 -1 -16 0 -34
2 -40 5 -17 -12 -55 -25 -55 -7 0 -18 12 -25 26 -13 29 -1 54 26 54 8 0 12 4
8 10 -3 5 -15 6 -29 0 -12 -4 -28 -5 -34 -2 -16 11 -25 59 -13 67 6 3 9 11 6
16 -3 5 1 6 9 3 9 -3 16 -2 16 4 0 6 -6 13 -12 15 -7 3 -9 6 -5 6 5 1 17 -4
28 -10z m-21 -131 c0 -9 -4 -8 -10 2 -7 11 -9 2 -5 -30 4 -34 3 -42 -7 -32 -6
6 -13 34 -14 61 -3 50 -3 50 16 31 11 -11 20 -26 20 -32z m-90 -283 c0 -8 -4
-15 -10 -15 -5 0 -7 7 -4 15 4 8 8 15 10 15 2 0 4 -7 4 -15z m570 -94 c13 -25
4 -70 -21 -101 -16 -21 -20 -23 -29 -10 -20 30 -23 62 -7 96 19 38 41 44 57
15z m-607 -55 c5 -12 -2 -14 -31 -7 -2 1 0 6 3 11 9 14 22 12 28 -4z m17 -46
c-7 -12 -19 -19 -35 -18 -19 2 -22 5 -13 16 8 9 13 10 18 2 5 -8 9 -7 13 4 4
9 11 16 17 16 8 0 8 -6 0 -20z m0 -94 c0 -2 -7 -7 -16 -10 -8 -3 -12 -2 -9 4
6 10 25 14 25 6z m100 -35 c15 -28 12 -46 -9 -72 -18 -22 -21 -23 -37 -7 -19
19 -22 62 -4 83 17 21 37 19 50 -4z m-68 -106 c3 -14 3 -23 0 -21 -3 3 -11 -2
-19 -12 -13 -15 -13 -14 -3 7 7 12 10 32 7 42 -3 10 -2 17 3 14 4 -3 10 -16
12 -30z m-29 -10 c-3 -9 -8 -14 -10 -11 -3 3 -2 9 2 15 9 16 15 13 8 -4z
m-233 -711 c0 -8 -5 -12 -10 -9 -6 4 -8 11 -5 16 9 14 15 11 15 -7z m-129 -47
c-7 -7 -14 -8 -21 -1 -6 6 -2 10 12 11 16 2 18 -1 9 -10z m-57 -79 c-3 -4 -11
-5 -19 -1 -21 7 -19 12 4 10 11 0 18 -5 15 -9z m-194 -102 c0 -3 -4 -8 -10
-11 -5 -3 -10 -1 -10 4 0 6 5 11 10 11 6 0 10 -2 10 -4z m-513 -172 c-3 -3
-12 -4 -19 -1 -8 3 -5 6 6 6 11 1 17 -2 13 -5z"/>
<path d="M7870 4431 c0 -6 4 -13 10 -16 6 -3 7 1 4 9 -7 18 -14 21 -14 7z"/>
<path d="M7217 3459 c6 -23 9 -24 16 -5 3 8 0 17 -7 19 -10 4 -12 -1 -9 -14z"/>
<path d="M7190 3449 c0 -5 5 -7 10 -4 6 3 10 8 10 11 0 2 -4 4 -10 4 -5 0 -10
-5 -10 -11z"/>
<path d="M7265 4580 c-3 -5 -1 -10 4 -10 6 0 11 5 11 10 0 6 -2 10 -4 10 -3 0
-8 -4 -11 -10z"/>
<path d="M7290 4565 c0 -5 5 -17 10 -25 5 -8 10 -10 10 -5 0 6 -5 17 -10 25
-5 8 -10 11 -10 5z"/>
<path d="M7646 4481 c-10 -11 -16 -26 -13 -33 4 -9 6 -7 6 4 1 24 38 41 73 34
18 -3 27 -2 23 4 -11 18 -71 11 -89 -9z"/>
<path d="M7785 4439 c-4 -6 -5 -12 -2 -15 2 -3 7 2 10 11 7 17 1 20 -8 4z"/>
<path d="M7631 4415 c-1 -22 16 -45 33 -45 5 0 3 6 -6 13 -9 6 -18 21 -21 32
-5 20 -5 20 -6 0z"/>
<path d="M6369 3353 c-13 -16 -12 -17 4 -4 16 13 21 21 13 21 -2 0 -10 -8 -17
-17z"/>
<path d="M6555 3330 c17 -20 38 -47 48 -60 17 -24 17 -24 0 8 -10 18 -31 45
-47 60 l-30 27 29 -35z"/>
<path d="M6641 3200 c12 -22 24 -38 26 -36 4 4 -37 76 -44 76 -2 0 6 -18 18
-40z"/>
<path d="M6709 3183 c-13 -15 -12 -15 9 -4 23 12 28 21 13 21 -5 0 -15 -7 -22
-17z"/>
<path d="M7015 3180 c3 -5 8 -10 11 -10 2 0 4 5 4 10 0 6 -5 10 -11 10 -5 0
-7 -4 -4 -10z"/>
<path d="M7016 3125 c-3 -9 0 -12 9 -9 8 4 15 -3 18 -18 4 -21 4 -21 6 3 1 29
-24 47 -33 24z"/>
<path d="M6442 3070 c-1 -25 6 -58 14 -75 8 -16 11 -21 8 -10 -3 11 -10 45
-14 75 l-7 55 -1 -45z"/>
<path d="M6511 3094 c0 -11 3 -14 6 -6 3 7 2 16 -1 19 -3 4 -6 -2 -5 -13z"/>
<path d="M6522 3040 c0 -14 2 -19 5 -12 2 6 2 18 0 25 -3 6 -5 1 -5 -13z"/>
<path d="M6623 3015 c0 -27 2 -38 4 -22 2 15 2 37 0 50 -2 12 -4 0 -4 -28z"/>
<path d="M6540 2952 c0 -5 10 -17 22 -28 l21 -19 -18 28 c-18 28 -25 33 -25
19z"/>
<path d="M6602 2940 c-7 -11 -8 -20 -3 -20 9 0 24 30 18 36 -1 2 -8 -6 -15
-16z"/>
<path d="M5328 2853 c7 -3 16 -2 19 1 4 3 -2 6 -13 5 -11 0 -14 -3 -6 -6z"/>
<path d="M5144 2804 c-18 -14 -18 -15 4 -4 12 6 22 13 22 15 0 8 -5 6 -26 -11z"/>
<path d="M6047 2771 c-37 -41 -52 -87 -44 -137 3 -23 4 -20 6 13 2 56 16 92
54 131 17 17 28 32 25 32 -3 0 -22 -18 -41 -39z"/>
<path d="M5591 2765 c9 -11 19 -27 22 -35 5 -13 6 -13 6 1 1 9 -9 24 -21 35
-23 19 -23 19 -7 -1z"/>
<path d="M6220 2636 c0 -2 11 -6 25 -8 13 -3 22 -1 19 3 -5 9 -44 13 -44 5z"/>
<path d="M7048 2633 c7 -3 16 -2 19 1 4 3 -2 6 -13 5 -11 0 -14 -3 -6 -6z"/>
<path d="M5817 2613 c-10 -10 -8 -43 2 -43 5 0 7 10 4 23 -2 12 10 -6 28 -40
18 -35 34 -61 37 -59 3 4 -56 126 -61 126 -2 0 -7 -3 -10 -7z"/>
<path d="M5269 2548 c4 -28 6 -29 9 -9 2 13 0 27 -5 32 -6 6 -7 -3 -4 -23z"/>
<path d="M6156 2565 c-9 -26 -7 -32 5 -12 6 10 9 21 6 23 -2 3 -7 -2 -11 -11z"/>
<path d="M6029 2552 c5 -10 18 -25 27 -33 11 -9 9 -2 -6 19 -26 35 -36 42 -21
14z"/>
<path d="M5821 2550 c-1 -22 35 -96 50 -106 12 -6 12 -5 1 9 -8 8 -22 37 -32
64 -11 26 -19 41 -19 33z"/>
<path d="M6298 2482 c-27 -44 -80 -90 -148 -128 -36 -19 -55 -32 -43 -29 41
11 114 57 150 94 40 41 68 80 61 86 -2 2 -11 -8 -20 -23z"/>
<path d="M5347 2481 c-4 -17 -3 -21 5 -13 5 5 8 16 6 23 -3 8 -7 3 -11 -10z"/>
<path d="M4651 2384 c0 -11 3 -14 6 -6 3 7 2 16 -1 19 -3 4 -6 -2 -5 -13z"/>
<path d="M6581 2386 c-16 -19 -25 -79 -17 -110 7 -27 31 -56 47 -56 23 0 59
54 59 87 0 35 -27 99 -37 89 -3 -3 -1 -11 5 -19 6 -7 14 -32 18 -54 5 -36 3
-45 -20 -68 -22 -21 -30 -24 -41 -15 -24 20 -29 77 -12 121 17 42 16 47 -2 25z"/>
<path d="M5650 2355 c19 -19 36 -35 39 -35 3 0 -10 16 -29 35 -19 19 -36 35
-39 35 -3 0 10 -16 29 -35z"/>
<path d="M6855 2318 l-20 -21 23 12 c12 6 22 16 22 21 0 13 -2 12 -25 -12z"/>
<path d="M4650 2313 c0 -5 10 -18 23 -29 l22 -19 -20 25 c-11 14 -21 27 -22
29 -2 2 -3 0 -3 -6z"/>
<path d="M6058 2315 c-2 -3 -38 -14 -79 -25 -62 -17 -66 -19 -26 -14 45 5 146
42 121 43 -6 1 -13 -1 -16 -4z"/>
<path d="M5734 2296 c11 -9 24 -16 30 -16 12 0 7 5 -24 19 -24 11 -24 11 -6
-3z"/>
<path d="M4240 2297 c0 -3 12 -12 26 -22 15 -9 23 -12 20 -6 -7 11 -46 35 -46
28z"/>
<path d="M5800 2270 c25 -8 97 -13 89 -6 -2 2 -29 6 -59 9 -36 4 -46 3 -30 -3z"/>
<path d="M4726 2257 c3 -10 9 -15 12 -12 3 3 0 11 -7 18 -10 9 -11 8 -5 -6z"/>
<path d="M4055 2239 c-4 -6 -5 -12 -2 -15 2 -3 7 2 10 11 7 17 1 20 -8 4z"/>
<path d="M4882 2220 c0 -19 2 -27 5 -17 2 9 2 25 0 35 -3 9 -5 1 -5 -18z"/>
<path d="M4300 2235 c0 -5 5 -17 10 -25 5 -8 10 -10 10 -5 0 6 -5 17 -10 25
-5 8 -10 11 -10 5z"/>
<path d="M4742 2210 c0 -14 2 -19 5 -12 2 6 2 18 0 25 -3 6 -5 1 -5 -13z"/>
<path d="M6868 2223 c7 -3 16 -2 19 1 4 3 -2 6 -13 5 -11 0 -14 -3 -6 -6z"/>
<path d="M4041 2194 c0 -11 3 -14 6 -6 3 7 2 16 -1 19 -3 4 -6 -2 -5 -13z"/>
<path d="M4961 2194 c0 -11 3 -14 6 -6 3 7 2 16 -1 19 -3 4 -6 -2 -5 -13z"/>
<path d="M4321 2185 c1 -19 18 -51 18 -35 0 8 -4 22 -9 30 -5 8 -9 11 -9 5z"/>
<path d="M4720 2145 c-7 -14 -27 -34 -44 -45 -17 -11 -26 -20 -19 -20 15 0 83
64 83 79 0 17 -5 13 -20 -14z"/>
<path d="M4940 2160 c-9 -6 -10 -10 -3 -10 6 0 15 5 18 10 8 12 4 12 -15 0z"/>
<path d="M6845 2159 c-4 -6 -5 -12 -2 -15 2 -3 7 2 10 11 7 17 1 20 -8 4z"/>
<path d="M6776 2076 c3 -8 14 -13 25 -11 10 2 19 -2 19 -8 0 -7 4 -6 10 3 6
10 5 18 -2 25 -7 7 -12 6 -15 -2 -3 -9 -10 -10 -24 -3 -15 8 -17 7 -13 -4z"/>
<path d="M4570 2070 l-55 -7 50 -1 c28 -1 57 3 65 8 8 5 11 9 5 8 -5 -1 -35
-4 -65 -8z"/>
<path d="M6136 2041 c-20 -22 -32 -87 -22 -125 8 -34 54 -86 75 -86 65 0 74
143 13 213 -20 22 -45 22 -66 -2z m75 -31 c27 -50 26 -134 -2 -154 -29 -20
-45 -11 -70 41 -50 102 20 212 72 113z"/>
<path d="M6737 2039 c7 -7 15 -10 18 -7 3 3 -2 9 -12 12 -14 6 -15 5 -6 -5z"/>
<path d="M6820 2030 c0 -5 5 -10 10 -10 6 0 10 5 10 10 0 6 -4 10 -10 10 -5 0
-10 -4 -10 -10z"/>
<path d="M6705 2010 c-3 -6 1 -7 9 -4 18 7 21 14 7 14 -6 0 -13 -4 -16 -10z"/>
<path d="M6746 2011 c-3 -5 1 -11 9 -14 9 -4 12 -1 8 9 -6 16 -10 17 -17 5z"/>
<path d="M6786 2003 c-6 -14 -5 -15 5 -6 7 7 10 15 7 18 -3 3 -9 -2 -12 -12z"/>
<path d="M5356 1933 c-6 -14 -5 -15 5 -6 7 7 10 15 7 18 -3 3 -9 -2 -12 -12z"/>
<path d="M5440 1949 c0 -3 34 -38 75 -78 41 -41 75 -69 75 -63 0 7 -14 24 -32
39 -18 16 -41 37 -52 48 -32 31 -66 59 -66 54z"/>
<path d="M5350 1906 c0 -36 101 -141 147 -152 32 -8 70 3 77 23 6 16 6 16 -12
0 -10 -9 -29 -17 -41 -17 -34 0 -105 54 -140 106 -17 26 -31 44 -31 40z"/>
<path d="M4650 1865 c-19 -22 -8 -25 13 -3 9 10 13 18 8 18 -5 0 -14 -7 -21
-15z"/>
<path d="M4716 1850 c5 -8 11 -35 15 -60 l6 -45 2 41 c0 23 -5 48 -15 60 -8
10 -12 12 -8 4z"/>
<path d="M6625 1850 c-3 -5 -1 -10 4 -10 6 0 11 5 11 10 0 6 -2 10 -4 10 -3 0
-8 -4 -11 -10z"/>
<path d="M6528 1833 c7 -3 16 -2 19 1 4 3 -2 6 -13 5 -11 0 -14 -3 -6 -6z"/>
<path d="M4631 1814 c0 -11 3 -14 6 -6 3 7 2 16 -1 19 -3 4 -6 -2 -5 -13z"/>
<path d="M4640 1771 c0 -17 47 -43 67 -38 15 4 15 5 -3 6 -11 0 -30 10 -42 21
-12 12 -22 16 -22 11z"/>
<path d="M6480 1750 c0 -5 7 -7 15 -4 8 4 15 8 15 10 0 2 -7 4 -15 4 -8 0 -15
-4 -15 -10z"/>
<path d="M6350 1726 c0 -2 8 -10 18 -17 15 -13 16 -12 3 4 -13 16 -21 21 -21
13z"/>
<path d="M6120 1646 c-14 -14 -13 -26 3 -26 7 0 17 8 24 18 9 15 8 19 -3 19
-7 0 -18 -5 -24 -11z"/>
<path d="M4878 1593 c7 -3 16 -2 19 1 4 3 -2 6 -13 5 -11 0 -14 -3 -6 -6z"/>
<path d="M4910 1591 c0 -9 38 -12 44 -3 2 4 -7 8 -20 8 -13 1 -24 -1 -24 -5z"/>
</g>
</svg>
